# xmcd
#
# Track frame offsets: 
#        150
#        13015
#        25491
#        37053
#        47455
#        62472
#        73395
#        84948
#        96321
#        109523
#        121513
#        130487
#        141451
#        151594
#        163035
#        178123
#        190250
#        205701
#        217120
#        227336
#        237149
#        246496
#        256975
#        267480
#        278165
#        287271
#        298257
#        308997
#        318744
#        328328
#        339621
#
# Disc length: 4730 seconds
#
# Revision: 0
# Processed by: cddbd v1.5.2PL0 Copyright (c) Steve Scherf et al.
# Submitted via: ExactAudioCopyFreeDBPlugin 1.0
#
DISCID=d612781f
DTITLE=Chet Atkins - The Early Years - 1946-1949 D
DYEAR=1900
DGENRE=Country
TTITLE0=Get Up and Go
TTITLE1=South
TTITLE2=Alabama Jubilee
TTITLE3=Corinne, Corinna
TTITLE4=Indiana
TTITLE5=Red Wing
TTITLE6=Frankie and Johnnie
TTITLE7=A Gay Ranchero
TTITLE8=Ballin' the Jack
TTITLE9=Honeysuckle Rose
TTITLE10=Darktown Strutters Ball
TTITLE11=The Old Spinning Wheel
TTITLE12=Silver Bell
TTITLE13=Under the Double Eagle
TTITLE14=The Birth of the Blues
TTITLE15=Have You Ever Been Lonely
TTITLE16=Caravan
TTITLE17=Old Man River
TTITLE18=Mister Sandman
TTITLE19=New Spanish Two Step
TTITLE20=Cherry Pink and Apple Blossom White
TTITLE21=Dance with Me Henry
TTITLE22=Darling, Je Vous Aime Beaucoup
TTITLE23=Tweedle Dee
TTITLE24=Hey Mr Guitar
TTITLE25=Unchained Melody
TTITLE26=Blues in the Night
TTITLE27=Somebody Stole My Gal
TTITLE28=Shine on Harvest Moon
TTITLE29=Intermezzo
TTITLE30=Tenderly
EXTD=
EXTT0=
EXTT1=
EXTT2=
EXTT3=
EXTT4=
EXTT5=
EXTT6=
EXTT7=
EXTT8=
EXTT9=
EXTT10=
EXTT11=
EXTT12=
EXTT13=
EXTT14=
EXTT15=
EXTT16=
EXTT17=
EXTT18=
EXTT19=
EXTT20=
EXTT21=
EXTT22=
EXTT23=
EXTT24=
EXTT25=
EXTT26=
EXTT27=
EXTT28=
EXTT29=
EXTT30=
PLAYORDER=
